<svg width="50" height="20" viewBox="0 0 114 103" fill="none" xmlns="http://www.w3.org/2000/svg">
<path d="M109.992 49.609C109.642 49.0502 109.169 48.5621 108.602 48.1746C108.036 47.7871 107.387 47.5085 106.697 47.3558C102.043 46.3362 97.2064 46.1992 92.4914 46.9535C94.4953 38.9871 93.2039 32.7508 91.868 29.1297C91.4661 27.9903 90.6105 27.0263 89.467 26.4242C88.3235 25.8221 86.9734 25.6249 85.6781 25.8707C81.0841 26.8101 76.7408 28.5603 72.8976 31.0207C70.1792 25.1308 65.8042 19.9851 60.2062 16.0937C59.2813 15.4669 58.1562 15.1281 57 15.1281C55.8438 15.1281 54.7187 15.4669 53.7937 16.0937C48.1958 19.9851 43.8207 25.1308 41.1023 31.0207C37.2592 28.5603 32.9159 26.8101 28.3219 25.8707C27.0266 25.6249 25.6765 25.8221 24.533 26.4242C23.3895 27.0263 22.5339 27.9903 22.132 29.1297C20.7961 32.7508 19.5047 38.9871 21.5086 46.9535C16.7935 46.1992 11.9566 46.3362 7.30312 47.3558C6.6128 47.5085 5.96435 47.7871 5.39765 48.1746C4.83094 48.5621 4.35796 49.0502 4.00781 49.609C3.30172 50.7325 3.10993 52.061 3.47343 53.3105C4.98749 58.1387 9.61874 67.3926 23.6461 74.7152C37.6734 82.0379 50.2758 82.0781 57 82.0781C63.7242 82.0781 76.2375 82.0781 90.3539 74.7152C104.47 67.3523 109.012 58.1387 110.527 53.3105C110.89 52.061 110.698 50.7325 109.992 49.609ZM86.4352 29.0492C86.8596 28.9595 87.3058 29.0173 87.6853 29.2111C88.0648 29.4048 88.3497 29.7205 88.4836 30.0953C89.775 33.7164 91.0664 40.1539 88.35 48.4422C88.3055 48.5226 88.3055 48.6031 88.2609 48.6836C87.1933 51.8676 85.6978 54.9213 83.8078 57.7766C79.9977 63.6765 74.9267 68.8327 68.8898 72.9449L67.7766 73.6691C72.2742 68.318 76.5937 60.1101 76.5937 48.2812C76.6387 43.4744 75.8267 38.6924 74.1891 34.1187C77.8249 31.6602 82.0001 29.9318 86.4352 29.0492V29.0492ZM55.9312 18.6687C56.2396 18.4598 56.6146 18.3469 57 18.3469C57.3854 18.3469 57.7604 18.4598 58.0687 18.6687C62.5664 21.7266 73.0312 30.6586 73.0312 48.2812C73.0312 57.5754 70.1812 65.5418 64.6148 72.0195C62.476 74.5553 59.9058 76.7688 57 78.5777C54.0942 76.7688 51.524 74.5553 49.3852 72.0195C43.8187 65.5418 40.9687 57.5754 40.9687 48.2812C40.9687 30.6586 51.4336 21.7266 55.9312 18.6687V18.6687ZM25.5164 30.0953C25.6502 29.7205 25.9352 29.4048 26.3147 29.2111C26.6941 29.0173 27.1404 28.9595 27.5648 29.0492C31.9999 29.9318 36.1751 31.6602 39.8109 34.1187C38.1732 38.6924 37.3613 43.4744 37.4062 48.2812C37.4062 60.1101 41.7258 68.318 46.2234 73.6691L45.1102 72.9449C39.0733 68.8327 34.0023 63.6765 30.1922 57.7766C28.3013 54.9075 26.8058 51.8404 25.7391 48.6433L25.65 48.4422C22.9336 40.1539 24.225 33.7164 25.5164 30.0953V30.0953ZM6.90234 52.4254C6.84151 52.2236 6.82594 52.0129 6.85652 51.8056C6.88711 51.5983 6.96325 51.3987 7.08046 51.2183C7.3269 50.8585 7.70504 50.588 8.14921 50.4539C12.8944 49.4628 17.8255 49.449 22.5773 50.4137C23.7324 53.5357 25.2395 56.5423 27.075 59.3859C32.8195 68.3984 41.1914 74.8359 47.9601 78.5375C40.0099 77.834 32.3227 75.5829 25.4273 71.9391C12.4687 65.1797 8.28281 56.8109 6.90234 52.4254ZM107.098 52.4254C105.717 56.8109 101.531 65.1797 88.5726 71.9391C81.6772 75.5829 73.99 77.834 66.0398 78.5375C72.8086 74.8359 81.1805 68.3984 86.925 59.3859C88.7605 56.5423 90.2676 53.5357 91.4227 50.4137C96.1745 49.449 101.106 49.4628 105.851 50.4539C106.295 50.588 106.673 50.8585 106.92 51.2183C107.037 51.3987 107.113 51.5983 107.143 51.8056C107.174 52.0129 107.158 52.2236 107.098 52.4254V52.4254Z" fill="#77DD77"/>
</svg>
